<svg width="256.856mm" height="663.923mm" viewBox="0 0 256.856 663.923" xmlns="http://www.w3.org/2000/svg" version="1.1" preserveAspectRatio="xMidYMid meet"><g id="svgGroup" stroke-linecap="round" fill-rule="evenodd" font-size="9pt" stroke="#000" stroke-width="0.25mm" fill="none" style="stroke:#000;stroke-width:0.25mm;fill:none"><path d="M 0 389.923 L 0 663.923 L 60 663.923 L 60 389.923 L 0 389.923 Z" id="side1_outsideCutPath" stroke="#FF0000" stroke-width="0.1" style="stroke:#FF0000;stroke-width:0.1" vector-effect="non-scaling-stroke"/><path d="M 63 389.923 L 63 663.923 L 123 663.923 L 123 389.923 L 63 389.923 Z" id="side3_outsideCutPath" stroke="#FF0000" stroke-width="0.1" style="stroke:#FF0000;stroke-width:0.1" vector-effect="non-scaling-stroke"/><path d="M 126 389.923 L 126 663.923 L 186 663.923 L 186 389.923 L 126 389.923 Z" id="side5_outsideCutPath" stroke="#FF0000" stroke-width="0.1" style="stroke:#FF0000;stroke-width:0.1" vector-effect="non-scaling-stroke"/><path d="M 0 112.923 L 0 386.923 L 60 386.923 L 60 112.923 L 0 112.923 Z" id="side0_outsideCutPath" stroke="#FF0000" stroke-width="0.1" style="stroke:#FF0000;stroke-width:0.1" vector-effect="non-scaling-stroke"/><path d="M 63 112.923 L 63 386.923 L 123 386.923 L 123 112.923 L 63 112.923 Z" id="side2_outsideCutPath" stroke="#FF0000" stroke-width="0.1" style="stroke:#FF0000;stroke-width:0.1" vector-effect="non-scaling-stroke"/><path d="M 126 112.923 L 126 386.923 L 186 386.923 L 186 112.923 L 126 112.923 Z" id="side4_outsideCutPath" stroke="#FF0000" stroke-width="0.1" style="stroke:#FF0000;stroke-width:0.1" vector-effect="non-scaling-stroke"/><path d="M 95.196 0 L 126.928 54.962 L 95.196 109.923 L 31.732 109.923 L 0 54.962 L 31.732 0 L 95.196 0 Z" id="top_outsideCutPath" stroke="#FF0000" stroke-width="0.1" style="stroke:#FF0000;stroke-width:0.1" vector-effect="non-scaling-stroke"/><path d="M 225.124 0 L 256.856 54.962 L 225.124 109.923 L 161.66 109.923 L 129.928 54.962 L 161.66 0 L 225.124 0 Z" id="bottom_outsideCutPath" stroke="#FF0000" stroke-width="0.1" style="stroke:#FF0000;stroke-width:0.1" vector-effect="non-scaling-stroke"/></g></svg>